#tb 0: 1/25
#media_type 0: video
#codec_id 0: rawvideo
#dimensions 0: 176x288
#sar 0: 0/1
0,          0,          0,        1,   152064, 0x014d8d09
0,          1,          1,        1,   152064, 0x99842dde
0,          2,          2,        1,   152064, 0xc4644a96
0,          3,          3,        1,   152064, 0xdc8220bc
0,          4,          4,        1,   152064, 0xdc786d2c
